<svg id="Calque_1-2" xmlns="http://www.w3.org/2000/svg" width="62.056" height="93.182" viewBox="0 0 62.056 93.182">
  <path id="Tracé_46" data-name="Tracé 46" d="M31.028,93.182A31.063,31.063,0,0,1,0,62.154V0H62.056V62.154A31.063,31.063,0,0,1,31.028,93.182ZM3.617,3.617V62.154a27.411,27.411,0,1,0,54.822,0V3.617Z" fill="#c6966b"/>
  <path id="Tracé_47" data-name="Tracé 47" d="M113.388,263.947h0l-3.214,1.74-3.214-1.74h0l3.214,3.214Z" transform="translate(-79.146 -195.31)" fill="#c6966b"/>
  <path id="Tracé_48" data-name="Tracé 48" d="M106.96,263.947l1.74,3.214-1.74,3.214,3.214-3.214Z" transform="translate(-79.146 -195.31)" fill="#c6966b"/>
  <path id="Tracé_49" data-name="Tracé 49" d="M122.535,263.947l-3.214,3.214,3.214,3.214-1.74-3.214Z" transform="translate(-88.292 -195.31)" fill="#c6966b"/>
  <path id="Tracé_50" data-name="Tracé 50" d="M106.96,279.521h0l3.214-1.74,3.214,1.74h0l-3.214-3.214Z" transform="translate(-79.146 -204.455)" fill="#c6966b"/>
  <path id="Tracé_51" data-name="Tracé 51" d="M145.548,84.24l-6.32-49.694h-7.234l.183,1.649q.181,1.833.182,3.48,0,1.1-.182,3.48l-2.352,18.19h.905l2.454-20.022,4.671,40.169q.181,2.566.182,3.205a7.645,7.645,0,0,1-.549,3.3,3.469,3.469,0,0,1-1.923,1.648v.275h12.18v-.275Q146.006,88.636,145.548,84.24Z" transform="translate(-96.066 -25.563)" fill="#c6966b"/>
  <path id="Tracé_52" data-name="Tracé 52" d="M67.655,62.729H50.814V40.683a9.147,9.147,0,0,1,.641-3.983,4.235,4.235,0,0,1,1.924-1.878v-.275H40.007v.275A4.251,4.251,0,0,1,41.931,36.7a9.181,9.181,0,0,1,.641,3.983v43.1a9.194,9.194,0,0,1-.641,3.984,4.243,4.243,0,0,1-1.924,1.876v.275H53.379v-.275a4.226,4.226,0,0,1-1.924-1.876,9.16,9.16,0,0,1-.641-3.984V63.644H67.74Z" transform="translate(-29.603 -25.563)" fill="#c6966b"/>
  <path id="Tracé_53" data-name="Tracé 53" d="M111.632,163.19a51.523,51.523,0,0,1-1.6,8.93q-1.055,3.619-2.152,4.257v.275h8.333v-.275a4.642,4.642,0,0,1-2.93-2.747,15.063,15.063,0,0,1-.916-5.861,41.87,41.87,0,0,1,.274-4.579l1.4-11.428h-.93l-1.477,11.428Z" transform="translate(-79.825 -112.298)" fill="#c6966b"/>
  <path id="Tracé_54" data-name="Tracé 54" d="M43.79,283.713l.422-.8L42.8,281.423l-.819.386-.826-.869,4.827-2.083.959,1.01-2.3,4.745Zm-.058-2.727.959,1.01.417-.788q.178-.356.618-1.161c-.546.261-.938.452-1.186.563Z" transform="translate(-30.453 -206.343)" fill="#1f2e4a"/>
  <path id="Tracé_55" data-name="Tracé 55" d="M62.484,293.484l.962.606c-.33.537-.113.9.467,1.261.475.3.809.289,1.012-.034.177-.282.074-.494-.437-.971l-.3-.279c-.833-.746-1.019-1.477-.572-2.187.469-.745,1.354-.875,2.41-.211,1.12.706,1.39,1.564.885,2.458l-.938-.591c.228-.414.123-.742-.416-1.082-.428-.27-.728-.262-.905.02s-.071.529.388.957l.311.286c.894.817,1.088,1.472.641,2.181-.543.862-1.506.895-2.6.2C62.217,295.364,61.914,294.4,62.484,293.484Z" transform="translate(-46.029 -215.505)" fill="#1f2e4a"/>
  <path id="Tracé_56" data-name="Tracé 56" d="M82.473,303.336l1.08.355c-.19.6.107.9.759,1.11.533.175.855.084.974-.278.1-.316-.048-.5-.659-.836l-.358-.2c-.988-.522-1.346-1.186-1.084-1.983.275-.836,1.1-1.177,2.286-.788,1.257.413,1.727,1.18,1.453,2.169l-1.053-.346c.121-.456-.06-.749-.666-.948-.48-.158-.769-.078-.873.238s.059.53.608.834l.371.2c1.065.576,1.412,1.164,1.15,1.96-.318.968-1.244,1.232-2.475.828C82.67,305.224,82.142,304.365,82.473,303.336Z" transform="translate(-60.956 -222.401)" fill="#1f2e4a"/>
  <path id="Tracé_57" data-name="Tracé 57" d="M105.261,309.424a2.851,2.851,0,0,1,.2-3.737,2.721,2.721,0,0,1,3.654.2,2.851,2.851,0,0,1-.2,3.737,2.721,2.721,0,0,1-3.654-.2Zm1.844-.212a1.21,1.21,0,0,0,.978-.363,1.995,1.995,0,0,0,.124-2.284,1.21,1.21,0,0,0-.932-.467,1.185,1.185,0,0,0-.971.364,1.994,1.994,0,0,0-.124,2.283A1.186,1.186,0,0,0,107.1,309.212Z" transform="translate(-77.443 -225.744)" fill="#1f2e4a"/>
  <path id="Tracé_58" data-name="Tracé 58" d="M130.755,307.758a2.581,2.581,0,0,1-1.075-1.683,2.62,2.62,0,0,1,.235-1.985,2.36,2.36,0,0,1,1.6-1.071,2.5,2.5,0,0,1,1.621.132,2.049,2.049,0,0,1,1.07,1.187l-1.156.261a1.111,1.111,0,0,0-1.313-.592c-.778.175-1.084.834-.866,1.8s.777,1.431,1.555,1.256a1.139,1.139,0,0,0,.93-1.233l1.143-.258a2.16,2.16,0,0,1-.411,1.613,2.442,2.442,0,0,1-1.439.864A2.365,2.365,0,0,1,130.755,307.758Z" transform="translate(-95.891 -224.166)" fill="#1f2e4a"/>
  <path id="Tracé_59" data-name="Tracé 59" d="M151.656,302.841l-2.012-4.506,1.069-.477,2.011,4.506Z" transform="translate(-110.73 -220.402)" fill="#1f2e4a"/>
  <path id="Tracé_60" data-name="Tracé 60" d="M162.14,286.2l-2.147,1.464.5.738,1.952-1.331.554.813-1.952,1.331.543.8,2.141-1.46.59.864-3.109,2.12-2.78-4.077,3.115-2.124Zm-1.749-1.643-.205,1.348-.71.484-.058-1.168Z" transform="translate(-117.236 -210.562)" fill="#1f2e4a"/>
  <path id="Tracé_61" data-name="Tracé 61" d="M177.242,280.592l.76-.845c.474.417.863.263,1.322-.247.375-.417.422-.749.138-1-.247-.222-.475-.156-1.031.266l-.326.248c-.876.694-1.629.754-2.252.193-.655-.589-.633-1.483.2-2.411.885-.984,1.777-1.105,2.572-.456l-.742.825c-.369-.295-.71-.247-1.136.227-.338.376-.382.673-.134.9s.509.159,1.009-.22l.335-.258c.957-.743,1.635-.823,2.258-.262.758.681.627,1.635-.24,2.6C179.049,281.174,178.05,281.31,177.242,280.592Z" transform="translate(-129.783 -204.179)" fill="#1f2e4a"/>
</svg>
