<svg xmlns="http://www.w3.org/2000/svg" width="129.772" height="194.265" viewBox="0 0 129.772 194.265">
  <g id="Groupe_21008" data-name="Groupe 21008" transform="translate(-159.549 -7896.048)">
    <path id="Tracé_7090" data-name="Tracé 7090" d="M64.886,194.264A64.959,64.959,0,0,1,0,129.378V0H129.772V129.378A64.959,64.959,0,0,1,64.886,194.264ZM8.683,8.682v120.7a56.2,56.2,0,1,0,112.406,0V8.682Z" transform="translate(159.549 7896.048)" fill="#c6966b"/>
    <path id="Tracé_7091" data-name="Tracé 7091" d="M120.28,263.947h0l-6.66,3.6-6.66-3.6,6.66,6.66Z" transform="translate(110.815 7774.914)" fill="#c6966b"/>
    <path id="Tracé_7092" data-name="Tracé 7092" d="M106.96,263.947l3.605,6.66-3.605,6.66,6.66-6.66Z" transform="translate(110.815 7774.914)" fill="#c6966b"/>
    <path id="Tracé_7093" data-name="Tracé 7093" d="M125.981,263.947l-6.66,6.66,6.66,6.66-3.605-6.66Z" transform="translate(105.114 7774.914)" fill="#c6966b"/>
    <path id="Tracé_7094" data-name="Tracé 7094" d="M106.96,282.966h0l6.66-3.605,6.66,3.605-6.66-6.66Z" transform="translate(110.815 7769.214)" fill="#c6966b"/>
    <path id="Tracé_7095" data-name="Tracé 7095" d="M162.4,137.514,149.309,34.547h-14.99l.38,3.417q.375,3.8.378,7.211,0,2.28-.378,7.211l-4.873,37.69H131.7l5.084-41.486,9.678,83.231q.376,5.316.378,6.641a15.843,15.843,0,0,1-1.137,6.831,7.188,7.188,0,0,1-3.985,3.414v.57h25.238v-.57q-3.606-2.085-4.554-11.193" transform="translate(100.27 7880.709)" fill="#c6966b"/>
    <path id="Tracé_7096" data-name="Tracé 7096" d="M97.295,92.941H62.4V47.261q0-5.695,1.327-8.253a8.776,8.776,0,0,1,3.987-3.892v-.57H40.007v.57a8.81,8.81,0,0,1,3.987,3.892q1.324,2.56,1.328,8.253v89.3q0,5.692-1.328,8.256a8.792,8.792,0,0,1-3.987,3.887v.57H67.714v-.57a8.758,8.758,0,0,1-3.987-3.887q-1.331-2.565-1.327-8.256V94.838H97.472Z" transform="translate(141.693 7880.71)" fill="#c6966b"/>
    <path id="Tracé_7097" data-name="Tracé 7097" d="M115.656,175.44a106.758,106.758,0,0,1-3.319,18.5q-2.185,7.5-4.459,8.821v.57h17.266v-.57a9.618,9.618,0,0,1-6.071-5.692q-1.9-4.36-1.9-12.144a86.756,86.756,0,0,1,.567-9.488l2.9-23.678h-1.927Z" transform="translate(110.392 7826.652)" fill="#c6966b"/>
    <path id="Tracé_7098" data-name="Tracé 7098" d="M46.615,288.918l.875-1.663-2.927-3.081-1.7.8-1.711-1.8,10-4.315,1.988,2.092-4.76,9.832Zm-.12-5.65,1.988,2.092.865-1.633q.369-.738,1.28-2.405c-1.13.54-1.943.935-2.457,1.167Z" transform="translate(141.163 7768.038)" fill="#1f2e4a"/>
    <path id="Tracé_7099" data-name="Tracé 7099" d="M62.784,295.892l1.993,1.255c-.684,1.113-.235,1.855.968,2.613.984.62,1.677.6,2.1-.07.367-.584.153-1.024-.9-2.013l-.62-.578c-1.726-1.545-2.112-3.061-1.185-4.531.972-1.543,2.806-1.814,4.993-.436,2.321,1.462,2.881,3.241,1.833,5.093L70.015,296c.471-.857.255-1.536-.863-2.241-.887-.559-1.508-.543-1.876.041s-.147,1.1.8,1.983l.645.593c1.853,1.693,2.254,3.05,1.328,4.52-1.125,1.786-3.119,1.854-5.392.422-2.43-1.531-3.059-3.523-1.878-5.426" transform="translate(131.455 7762.328)" fill="#1f2e4a"/>
    <path id="Tracé_7100" data-name="Tracé 7100" d="M82.577,306.315l2.237.735c-.394,1.246.221,1.856,1.572,2.3,1.1.363,1.771.173,2.018-.577.215-.655-.1-1.03-1.365-1.733l-.741-.41c-2.048-1.081-2.789-2.458-2.247-4.108.57-1.732,2.282-2.439,4.737-1.632,2.605.856,3.579,2.445,3.011,4.495l-2.182-.717c.25-.945-.124-1.552-1.38-1.964-1-.328-1.594-.161-1.809.494s.123,1.1,1.26,1.729l.769.419c2.207,1.193,2.925,2.412,2.383,4.062-.658,2-2.577,2.554-5.127,1.716-2.728-.9-3.821-2.676-3.135-4.808" transform="translate(122.151 7758.03)" fill="#1f2e4a"/>
    <path id="Tracé_7101" data-name="Tracé 7101" d="M105.908,314.085a5.906,5.906,0,0,1,.421-7.743,5.637,5.637,0,0,1,7.571.413,5.906,5.906,0,0,1-.422,7.743,5.638,5.638,0,0,1-7.57-.413m3.82-.439a2.509,2.509,0,0,0,2.026-.752,4.133,4.133,0,0,0,.258-4.732,2.508,2.508,0,0,0-1.932-.968,2.456,2.456,0,0,0-2.011.754,4.133,4.133,0,0,0-.258,4.731,2.457,2.457,0,0,0,1.918.968" transform="translate(111.876 7755.946)" fill="#1f2e4a"/>
    <path id="Tracé_7102" data-name="Tracé 7102" d="M132,312.919a5.347,5.347,0,0,1-2.229-3.488,5.426,5.426,0,0,1,.487-4.113,4.89,4.89,0,0,1,3.313-2.219,5.177,5.177,0,0,1,3.359.274,4.247,4.247,0,0,1,2.218,2.459l-2.4.54a2.3,2.3,0,0,0-2.72-1.227c-1.612.363-2.246,1.728-1.795,3.731s1.611,2.965,3.222,2.6a2.359,2.359,0,0,0,1.927-2.554l2.368-.533a4.475,4.475,0,0,1-.852,3.342,5.059,5.059,0,0,1-2.982,1.79,4.9,4.9,0,0,1-3.919-.6" transform="translate(100.378 7756.93)" fill="#1f2e4a"/>
    <rect id="Rectangle_7058" data-name="Rectangle 7058" width="2.427" height="10.225" transform="matrix(0.913, -0.408, 0.408, 0.913, 240.774, 8058.122)" fill="#1f2e4a"/>
    <path id="Tracé_7103" data-name="Tracé 7103" d="M166.111,287.961,161.662,291l1.044,1.53,4.046-2.759,1.148,1.685-4.045,2.759,1.125,1.649,4.437-3.026,1.221,1.792-6.442,4.393-5.76-8.448,6.454-4.4Zm-3.624-3.4-.425,2.793-1.471,1-.121-2.42Z" transform="translate(87.075 7765.408)" fill="#1f2e4a"/>
    <path id="Tracé_7104" data-name="Tracé 7104" d="M179.226,285.587l1.575-1.752c.981.864,1.788.546,2.738-.511.778-.865.873-1.552.287-2.08-.513-.461-.983-.324-2.137.551l-.674.514c-1.815,1.439-3.375,1.562-4.667.4-1.356-1.219-1.313-3.073.415-5,1.834-2.039,3.683-2.29,5.33-.944l-1.537,1.709c-.765-.61-1.471-.512-2.355.47-.7.78-.791,1.4-.279,1.856s1.056.33,2.091-.457l.695-.535c1.982-1.539,3.387-1.705,4.68-.544,1.57,1.412,1.3,3.389-.5,5.386-1.921,2.136-3.99,2.419-5.666.932" transform="translate(79.255 7769.386)" fill="#1f2e4a"/>
  </g>
</svg>
